PathFileType	4	(X/Y/Z)	s02c0102.trc
DataRate	CameraRate	NumFrames	NumMarkers	Units	OrigDataRate	OrigDataStartFrame	OrigNumFrames
200	200	4	51	mm	200	750	2000
Frame#	Time	racr			lacr			c7			jug			rlel			rdr			llel			ldr			s2			lic			ric			lasi			rasi			rpsi			lpsi			rgt			lgt			rth1			rth2			rth3			rth4			rlfc			rmfc			rsh1			rsh2			rsh3			rsh4			rlmal			rmmal			rcal			rtoe			rmt5			rmt1			lth1			lth2			lth4			lth3			llfc			lmfc			lsh1			lsh2			lsh3			lsh4			llmal			lmmal			lcal			ltoe			lmt5			SBIKE			LBIKE			RBIKE			
		X1	Y1	Z1	X2	Y2	Z2	X3	Y3	Z3	X4	Y4	Z4	X5	Y5	Z5	X6	Y6	Z6	X7	Y7	Z7	X8	Y8	Z8	X9	Y9	Z9	X10	Y10	Z10	X11	Y11	Z11	X12	Y12	Z12	X13	Y13	Z13	X14	Y14	Z14	X15	Y15	Z15	X16	Y16	Z16	X17	Y17	Z17	X18	Y18	Z18	X19	Y19	Z19	X20	Y20	Z20	X21	Y21	Z21	X22	Y22	Z22	X23	Y23	Z23	X24	Y24	Z24	X25	Y25	Z25	X26	Y26	Z26	X27	Y27	Z27	X28	Y28	Z28	X29	Y29	Z29	X30	Y30	Z30	X31	Y31	Z31	X32	Y32	Z32	X33	Y33	Z33	X34	Y34	Z34	X35	Y35	Z35	X36	Y36	Z36	X37	Y37	Z37	X38	Y38	Z38	X39	Y39	Z39	X40	Y40	Z40	X41	Y41	Z41	X42	Y42	Z42	X43	Y43	Z43	X44	Y44	Z44	X45	Y45	Z45	X46	Y46	Z46	X47	Y47	Z47	X48	Y48	Z48	X49	Y49	Z49	X50	Y50	Z50	X51	Y51	Z51	
750	3.7500	556.355070	1225.924437	-162.142909	528.549412	1233.316757	-497.024549	528.546765	1271.413587	-329.879134	457.858836	1146.118362	-324.247471	577.502331	982.027684	-48.644514	725.341129	844.339995	-122.261257	492.710729	961.095032	-581.007910	694.127470	860.588751	-520.151098	3.384175	1098.974246	-316.103170	139.097751	1111.387377	-460.045517	132.017777	1104.348155	-171.064651	184.279600	1084.720958	-431.333133	183.537518	1073.081385	-196.953133	30.420501	1149.810724	-264.200267	39.219577	1163.523292	-348.354668	108.513888	1015.037210	-131.132276	99.019124	1019.088167	-490.319256	195.989897	975.776759	-134.665431	280.415899	948.798933	-133.704067	339.819021	892.890304	-107.661026	297.965138	971.930784	-157.826818	428.277603	779.806001	-134.686473	416.832553	762.810838	-244.952567	366.562794	685.848485	-122.921689	312.787889	616.596428	-145.569040	235.063173	579.280956	-142.289609	323.740580	609.797851	-182.808547	136.734818	515.031442	-149.592581	161.243570	525.465706	-230.257183	53.524501	530.753769	-195.003367	241.525354	314.165689	-191.319948	157.001316	384.345218	-135.845194	183.444968	371.048034	-243.762848	222.907284	939.784453	-504.496420	299.496622	899.266165	-498.833158	321.961679	924.198074	-483.970474	345.771976	823.229606	-497.452504	416.472849	753.822860	-474.782124	423.983423	720.022043	-373.100227	411.468221	648.505204	-498.488650	420.965053	563.559958	-485.067003	385.764117	480.166045	-490.468628	437.608088	563.199062	-447.753365	351.091660	377.021350	-483.069121	365.968449	372.083511	-405.126329	281.864906	333.132250	-449.076903	566.172916	274.010267	-441.640161	459.982816	272.140625	-506.803309	-165.028523	857.366627	-316.715222	33.057702	81.826211	-515.351297	33.328550	81.776187	-115.472013	
751	3.7550	555.832128	1226.876836	-161.589918	531.070829	1233.813612	-496.192822	529.535842	1272.067907	-329.382303	458.889837	1146.738462	-324.249519	577.667887	982.726570	-49.279930	725.483712	844.535176	-122.305912	494.632481	962.086680	-582.140352	694.932415	860.498744	-520.090502	4.139844	1100.500882	-318.585460	140.785637	1111.181125	-461.638531	131.590366	1106.901426	-172.788306	185.822835	1084.592084	-432.579033	183.336895	1075.466565	-197.993759	30.981562	1152.231463	-266.936926	40.548334	1164.563098	-350.736809	108.658069	1018.657868	-131.721915	99.990370	1018.222095	-491.094812	196.260988	979.987624	-135.342512	281.254515	954.584805	-133.553415	341.432110	899.741654	-107.250381	298.584465	978.175529	-157.507812	432.047923	787.858841	-134.136169	421.743271	771.584455	-245.592330	370.220332	694.291720	-122.427945	314.972520	625.489231	-145.825610	238.033760	588.445739	-142.087618	326.851012	618.033678	-182.889970	139.516268	524.723142	-149.673876	163.163543	536.326968	-229.632940	56.194102	540.055577	-194.931877	245.099835	324.317762	-191.399448	160.262990	394.160903	-135.847492	186.812375	380.910261	-243.684906	221.640094	935.848841	-505.775819	297.806561	893.846804	-499.427675	321.437225	918.544700	-485.444754	342.060432	816.721306	-497.692156	411.326249	745.899928	-475.184176	413.625605	712.337245	-373.672303	406.196775	640.761336	-499.066616	416.881950	555.878204	-485.865193	382.675510	472.113921	-490.766521	433.490915	555.668199	-448.208640	349.709484	368.877205	-483.037608	364.432298	363.948412	-405.293077	280.207771	326.448212	-449.122552	563.563996	262.638266	-441.395813	457.354069	262.540236	-506.627362	-164.877820	857.507571	-316.604594	33.054882	81.882862	-515.336368	33.311535	81.824454	-115.434424	
752	3.7600	555.380380	1227.960051	-161.187392	533.680752	1234.498325	-495.318338	530.574336	1272.874113	-328.663759	460.108231	1147.431449	-324.119495	577.920504	983.370555	-49.744626	725.630300	844.651784	-122.672832	496.816878	963.484989	-583.042190	695.833878	860.501711	-519.889915	5.024962	1102.133297	-320.681879	142.525652	1111.287859	-463.377170	131.206270	1109.621948	-174.437537	187.424634	1084.505140	-433.803344	183.315939	1077.932853	-198.970011	31.622051	1154.613358	-269.749278	41.638798	1165.724222	-353.339176	108.924784	1022.551569	-132.271232	100.879957	1017.563990	-491.911502	196.533624	984.352721	-135.802174	281.657146	960.386682	-133.851687	343.187733	906.918895	-106.909509	299.060578	984.525283	-157.192637	435.944862	796.446405	-133.557482	426.906365	781.095385	-246.187713	374.133362	703.000678	-122.191226	318.597792	634.468061	-145.512079	241.461243	597.682143	-141.911380	330.416803	626.843236	-182.666214	142.745982	534.043036	-149.665545	164.516366	545.997287	-229.571108	59.259618	549.373160	-195.038934	249.267555	334.311819	-191.529354	164.293595	403.725627	-135.695400	190.562263	390.632411	-243.650716	220.693834	932.636884	-506.594811	295.797117	888.619093	-500.080332	320.091013	912.774568	-486.330124	338.036365	810.373495	-498.001279	405.572312	738.199294	-475.476180	407.801863	706.284337	-374.383262	400.464961	633.089900	-499.690068	412.221986	548.431772	-486.347265	379.129394	464.192901	-491.118871	428.761467	548.617587	-448.718938	347.615782	361.078025	-483.326563	362.236276	356.002246	-405.478247	278.003435	319.900983	-449.230103	560.279660	251.546775	-441.270418	454.237941	253.161983	-506.447787	-164.972699	857.397335	-316.583645	33.059261	81.896857	-515.298861	33.270078	81.886311	-115.355588	
753	3.7650	554.928285	1228.943315	-160.811003	536.355025	1235.229992	-494.303726	531.694777	1273.587831	-328.332817	461.275342	1148.111326	-324.329409	578.202719	984.030588	-50.071694	725.797280	844.992995	-122.677161	499.182478	964.950207	-583.985848	696.771668	860.324037	-519.737435	6.260799	1103.709051	-321.734426	144.211167	1111.190165	-464.616957	130.847298	1112.431018	-176.212030	188.985813	1084.505275	-434.731974	183.335584	1080.497730	-199.980347	32.272865	1157.183160	-272.629370	43.177758	1167.137622	-356.382728	109.168779	1026.558543	-132.763430	101.645486	1016.989416	-492.702155	196.858395	988.837680	-136.088631	282.480443	966.716648	-133.516323	345.060927	914.232251	-106.596884	299.437049	990.980798	-157.060648	439.849984	805.481085	-132.981940	431.275845	790.093629	-245.800825	377.703094	711.626617	-123.074994	322.517022	643.495758	-145.295638	245.269622	606.898031	-141.845183	334.292565	635.634824	-182.489069	146.506648	543.257779	-149.728418	167.569075	555.299680	-229.241207	62.888178	558.223424	-195.128110	253.820143	344.027889	-191.757512	168.517096	413.134225	-135.706484	194.917310	400.086066	-243.667585	219.749506	929.501774	-507.333312	293.542669	883.642943	-500.757858	317.987488	907.004515	-486.573842	333.661538	804.288154	-498.388007	399.508632	730.671937	-475.848254	400.937883	699.055254	-375.402692	394.454142	625.726777	-500.405115	407.094126	541.220339	-486.813224	375.035340	456.565230	-491.553170	423.557861	541.196764	-448.382947	345.093992	353.476933	-483.648443	359.415630	348.348916	-405.682885	275.258293	313.637482	-449.256912	556.459099	240.606447	-440.727884	450.491567	244.042231	-506.233569	-164.943132	857.440510	-316.493643	33.043472	81.875790	-515.297330	33.212768	81.938045	-115.292129	
